<svg width="20" height="20" viewBox="0 0 20 20" fill="none" xmlns="http://www.w3.org/2000/svg">
<path d="M10 15C11.3808 15 12.5 16.1192 12.5 17.5C12.5 18.8808 11.3808 20 10 20C8.61917 20 7.5 18.8808 7.5 17.5C7.5 16.1192 8.61917 15 10 15ZM10 7.5C11.3808 7.5 12.5 8.61917 12.5 10C12.5 11.3808 11.3808 12.5 10 12.5C8.61917 12.5 7.5 11.3808 7.5 10C7.5 8.61917 8.61917 7.5 10 7.5ZM10 0C11.3808 0 12.5 1.11917 12.5 2.5C12.5 3.88083 11.3808 5 10 5C8.61917 5 7.5 3.88083 7.5 2.5C7.5 1.11917 8.61917 0 10 0Z" fill="#999999"/>
</svg>
