<svg width="200" height="200" viewBox="0 0 60 60" fill="none" xmlns="http://www.w3.org/2000/svg">
<rect x="5" y="-5" width="50" height="50" rx="5" transform="matrix(1 0 0 -1 0 50)" fill="#FFCD00" stroke="#FFCD00" stroke-width="10"/>
<circle cx="48" cy="13" r="8" fill="#41F4FF"/>
<path d="M52.0882 9.87537C51.9801 10.4346 51.244 10.5753 50.925 10.1035C50.8308 9.9641 50.7949 9.79156 50.8268 9.6264C50.8933 9.28246 51.2319 9.0587 51.5759 9.12519C51.9225 9.1922 52.1552 9.52871 52.0882 9.87537ZM52.4887 13.4485C52.6766 13.7264 52.4346 14.0928 52.1052 14.0291C51.901 13.9896 51.7035 14.1232 51.664 14.3274L51.1119 17.1836C51.007 17.7259 50.4825 18.0805 49.9402 17.9756L44.3298 16.891C43.7876 16.7862 43.433 16.2616 43.5378 15.7194L44.09 12.8631C44.1294 12.659 43.9959 12.4614 43.7917 12.4219C43.4623 12.3583 43.3744 11.9281 43.6523 11.7402L48.0962 8.73619C48.5537 8.42689 49.1754 8.54706 49.4847 9.00461L52.4887 13.4485ZM48.4647 15.0713C48.5545 14.6066 48.2506 14.1569 47.7858 14.0671C47.321 13.9772 46.8714 14.2812 46.7815 14.746L46.6188 15.5875C46.529 16.0523 46.8329 16.5019 47.2977 16.5918C47.7625 16.6816 48.2121 16.3777 48.302 15.9129L48.4647 15.0713Z" fill="#13223A"/>
<path d="M6.2884 43.174C4.37038 44.2701 6.33371 46.5689 8.54285 46.5689H14.6224C16.0413 46.5689 17.2793 45.7946 17.9369 44.6455C18.5533 43.5683 17.8333 42.3287 16.8168 41.6167C15.5328 40.7172 13.8285 40.6973 12.5238 41.5667L11.7516 42.0814C11.0947 42.5192 10.3228 42.7528 9.53339 42.7528H7.94416C7.31562 42.7528 6.75945 42.9048 6.2884 43.174Z" fill="#13223A"/>
<path d="M43.3411 42.7226C42.8137 42.7226 42.3858 42.2959 42.3842 41.7686L42.3791 40.1123C42.3727 38.0229 40.0059 36.7262 38.215 37.8025C37.7432 38.086 37.2585 38.3761 36.7695 38.6683C34.4426 40.0587 34.5221 43.4266 36.9002 44.7274C37.7619 45.1988 38.5853 45.6505 39.2897 46.0386C39.8841 46.3661 40.551 46.5387 41.2297 46.5387H43.1572C45.3664 46.5387 47.1596 44.3361 45.2464 43.2315C44.6857 42.9078 44.035 42.7226 43.3411 42.7226Z" fill="#13223A"/>
<path d="M42.8999 17.717C42.0501 17.7624 40.7208 17.717 40.7208 17.717C36.5984 17.717 32.6735 21.0438 31.9971 25.1099C31.9971 25.1099 31.7901 26.3587 31.5363 27.8851C31.2825 29.4116 29.4975 30.6604 27.5704 30.6604L23.3373 36.5632L27.5704 42.747C29.6976 42.747 36.6026 42.737 36.6026 42.737C40.5118 42.496 43.6354 39.225 43.6354 35.2588V23.4324C46.6138 23.2709 47.8285 17.4429 47.3571 17.2286C46.8856 17.0143 44.7309 17.6191 42.8999 17.717Z" fill="#13223A"/>
<path d="M22.8185 30.6603C16.1497 30.6603 10.7441 36.0659 10.7441 42.7347L27.5705 42.7471V30.6603C25.6433 30.6603 22.8185 30.6603 22.8185 30.6603Z" fill="#13223A"/>
<path d="M40.0796 42.7417C39.5011 42.7417 39.0322 42.2728 39.0322 41.6943V40.3566C39.0322 39.0393 37.965 37.9714 36.6477 37.9714C36.0288 37.9714 35.3208 37.9714 34.5627 37.9714C32.055 37.9714 30.0031 40.1149 30.0001 42.7359C30.0001 42.7377 30 42.7397 30 42.7416C30 44.8492 31.2937 46.5578 33.4013 46.5578H39.8956C42.1048 46.5578 43.898 44.355 41.9847 43.2505C41.424 42.9269 40.7734 42.7417 40.0796 42.7417Z" fill="#13223A"/>
</svg>
