<svg width="24" height="24" viewBox="0 0 24 24" fill="none" xmlns="http://www.w3.org/2000/svg">
<path fill-rule="evenodd" clip-rule="evenodd" d="M19 24H5C2.239 24 0 21.761 0 19V5C0 2.239 2.239 0 5 0H19C21.762 0 24 2.239 24 5V19C24 21.761 21.762 24 19 24ZM15.712 19.112L15.288 17.632L16.312 18.584L17.28 19.48L19 21V6.648C19 5.736 18.264 5 17.36 5H6.64C5.736 5 5 5.736 5 6.648V17.464C5 18.376 5.736 19.112 6.64 19.112H15.712ZM14.272 15.448C16.04 15.392 16.72 14.232 16.72 14.232C16.72 11.656 15.568 9.568 15.568 9.568C14.416 8.704 13.32 8.728 13.32 8.728L13.208 8.856C14.568 9.272 15.2 9.872 15.2 9.872C14.368 9.416 13.552 9.192 12.792 9.104C12.216 9.04 11.664 9.056 11.176 9.12L11.04 9.136C10.76 9.16 10.08 9.264 9.224 9.64L8.752 9.872C8.752 9.872 9.416 9.24 10.856 8.824L10.776 8.728C10.776 8.728 9.68 8.704 8.528 9.568C8.528 9.568 7.376 11.656 7.376 14.232C7.376 14.232 8.048 15.392 9.816 15.448L10.352 14.784C9.336 14.48 8.952 13.84 8.952 13.84L9.176 13.976L9.208 14L9.24 14.018L9.249 14.022L9.28 14.04C9.48 14.152 9.68 14.24 9.864 14.312C10.192 14.44 10.584 14.568 11.04 14.656C11.64 14.768 12.344 14.808 13.112 14.664C13.488 14.6 13.872 14.488 14.272 14.32C14.552 14.216 14.864 14.064 15.192 13.848C15.192 13.848 14.792 14.504 13.744 14.8L14.272 15.448ZM10.552 11.712C10.096 11.712 9.736 12.112 9.736 12.6C9.736 13.088 10.104 13.488 10.552 13.488C11.008 13.488 11.368 13.088 11.368 12.6C11.376 12.112 11.008 11.712 10.552 11.712ZM13.472 11.712C13.016 11.712 12.656 12.112 12.656 12.6C12.656 13.088 13.024 13.488 13.472 13.488C13.928 13.488 14.288 13.088 14.288 12.6C14.288 12.112 13.928 11.712 13.472 11.712Z" fill="black"/>
</svg>
